<mxfile host="app.diagrams.net" modified="2021-03-31T01:14:14.859Z" agent="5.0 (Windows NT 10.0; Win64; x64) AppleWebKit/537.36 (KHTML, like Gecko) Chrome/89.0.4389.90 Safari/537.36" etag="tfQ_Ajk4ke_9JxAOiId2" version="14.5.0" type="github">
  <diagram name="Page-1" id="197159a0-c6a4-9194-75a8-e4174976684c">
    <mxGraphModel dx="2216" dy="2089" grid="1" gridSize="10" guides="1" tooltips="1" connect="1" arrows="1" fold="1" page="1" pageScale="1.5" pageWidth="1169" pageHeight="826" background="none" math="0" shadow="0">
      <root>
        <mxCell id="0" style=";html=1;" />
        <mxCell id="1" style=";html=1;" parent="0" />
        <mxCell id="1257a543d1cacc4b-46" value="DR site 2" style="whiteSpace=wrap;html=1;fillColor=#dae8fc;fontSize=14;strokeColor=none;verticalAlign=bottom;" parent="1" vertex="1">
          <mxGeometry x="988" y="1234" width="514" height="260" as="geometry" />
        </mxCell>
        <mxCell id="1257a543d1cacc4b-45" value="Production site 2" style="whiteSpace=wrap;html=1;fillColor=#dae8fc;fontSize=14;strokeColor=none;verticalAlign=bottom;" parent="1" vertex="1">
          <mxGeometry x="252" y="1234" width="660" height="260" as="geometry" />
        </mxCell>
        <mxCell id="1257a543d1cacc4b-44" value="DC Pramuka" style="whiteSpace=wrap;html=1;fillColor=#dae8fc;fontSize=14;strokeColor=none;verticalAlign=top;" parent="1" vertex="1">
          <mxGeometry x="940" y="20" width="514" height="277" as="geometry" />
        </mxCell>
        <mxCell id="1257a543d1cacc4b-43" value="DC Sentul" style="whiteSpace=wrap;html=1;fillColor=#dae8fc;fontSize=14;strokeColor=none;verticalAlign=top;" parent="1" vertex="1">
          <mxGeometry x="170" y="-20" width="660" height="276" as="geometry" />
        </mxCell>
        <mxCell id="1257a543d1cacc4b-11" style="edgeStyle=orthogonalEdgeStyle;rounded=0;html=1;startSize=10;endSize=10;jettySize=auto;orthogonalLoop=1;fontSize=14;endArrow=none;endFill=0;strokeColor=#808080;" parent="1" target="1257a543d1cacc4b-5" edge="1">
          <mxGeometry relative="1" as="geometry">
            <Array as="points">
              <mxPoint x="469" y="347" />
              <mxPoint x="604" y="347" />
            </Array>
            <mxPoint x="576" y="456.00000000000045" as="sourcePoint" />
          </mxGeometry>
        </mxCell>
        <mxCell id="1257a543d1cacc4b-12" style="edgeStyle=orthogonalEdgeStyle;rounded=0;html=1;startSize=10;endSize=10;jettySize=auto;orthogonalLoop=1;fontSize=14;endArrow=none;endFill=0;strokeColor=#808080;" parent="1" target="1257a543d1cacc4b-7" edge="1">
          <mxGeometry relative="1" as="geometry">
            <Array as="points">
              <mxPoint x="469" y="347" />
              <mxPoint x="845" y="347" />
            </Array>
            <mxPoint x="613" y="420" as="sourcePoint" />
          </mxGeometry>
        </mxCell>
        <mxCell id="1257a543d1cacc4b-13" style="edgeStyle=orthogonalEdgeStyle;rounded=0;html=1;startSize=10;endSize=10;jettySize=auto;orthogonalLoop=1;fontSize=14;endArrow=none;endFill=0;strokeColor=#808080;" parent="1" edge="1">
          <mxGeometry relative="1" as="geometry">
            <mxPoint x="720" y="840" as="targetPoint" />
            <Array as="points">
              <mxPoint x="613" y="830" />
              <mxPoint x="469" y="830" />
              <mxPoint x="469" y="880" />
              <mxPoint x="720" y="880" />
            </Array>
            <mxPoint x="613" y="420" as="sourcePoint" />
          </mxGeometry>
        </mxCell>
        <mxCell id="1257a543d1cacc4b-17" style="edgeStyle=orthogonalEdgeStyle;rounded=0;html=1;startSize=10;endSize=10;jettySize=auto;orthogonalLoop=1;fontSize=14;endArrow=none;endFill=0;strokeColor=#808080;" parent="1" source="1257a543d1cacc4b-2" target="1257a543d1cacc4b-8" edge="1">
          <mxGeometry relative="1" as="geometry">
            <Array as="points">
              <mxPoint x="1449" y="348" />
              <mxPoint x="1035" y="348" />
            </Array>
          </mxGeometry>
        </mxCell>
        <mxCell id="1257a543d1cacc4b-2" value="Veeam backup server" style="shadow=0;dashed=0;html=1;strokeColor=none;fillColor=#4495D1;labelPosition=center;verticalLabelPosition=top;verticalAlign=bottom;shape=mxgraph.veeam.2d.veeam_backup_and_replication_server;fontSize=14;align=center;" parent="1" vertex="1">
          <mxGeometry x="1495.9999999999998" y="420" width="74" height="72" as="geometry" />
        </mxCell>
        <mxCell id="1257a543d1cacc4b-10" style="edgeStyle=orthogonalEdgeStyle;rounded=0;html=1;startSize=10;endSize=10;jettySize=auto;orthogonalLoop=1;fontSize=14;endArrow=none;endFill=0;strokeColor=#808080;entryX=0.5;entryY=0;entryDx=0;entryDy=0;entryPerimeter=0;" parent="1" target="Znz7ao2ePO_Y9sYvwKAR-23" edge="1">
          <mxGeometry relative="1" as="geometry">
            <mxPoint x="452" y="307" as="targetPoint" />
            <Array as="points">
              <mxPoint x="370" y="756" />
              <mxPoint x="298" y="756" />
              <mxPoint x="298" y="347" />
              <mxPoint x="540" y="347" />
              <mxPoint x="540" y="400" />
              <mxPoint x="492" y="400" />
            </Array>
            <mxPoint x="370" y="840" as="sourcePoint" />
          </mxGeometry>
        </mxCell>
        <mxCell id="1257a543d1cacc4b-3" value="" style="shadow=0;dashed=0;html=1;strokeColor=none;fillColor=#4495D1;labelPosition=center;verticalLabelPosition=bottom;verticalAlign=top;shape=mxgraph.veeam.2d.backup_repository;fontSize=14;" parent="1" vertex="1">
          <mxGeometry x="555.9999999999999" y="732" width="52" height="48" as="geometry" />
        </mxCell>
        <mxCell id="1257a543d1cacc4b-5" value="Haproxy" style="shadow=0;dashed=0;html=1;strokeColor=none;fillColor=#4495D1;labelPosition=center;verticalLabelPosition=bottom;verticalAlign=top;shape=mxgraph.veeam.2d.vmware_host;fontSize=14;" parent="1" vertex="1">
          <mxGeometry x="580" y="136" width="124" height="120" as="geometry" />
        </mxCell>
        <mxCell id="1257a543d1cacc4b-6" value="Haproxy" style="shadow=0;dashed=0;html=1;strokeColor=none;fillColor=#4495D1;labelPosition=center;verticalLabelPosition=bottom;verticalAlign=top;shape=mxgraph.veeam.2d.hyper_v_host;fontFamily=Helvetica;fontSize=14;fontColor=#000000;align=center;" parent="1" vertex="1">
          <mxGeometry x="965.9999999999998" y="240" width="124" height="120" as="geometry" />
        </mxCell>
        <mxCell id="1257a543d1cacc4b-14" style="rounded=0;html=1;startSize=10;endSize=10;jettySize=auto;orthogonalLoop=1;fontSize=14;endArrow=none;endFill=0;strokeColor=#808080;" parent="1" source="1257a543d1cacc4b-7" target="1257a543d1cacc4b-9" edge="1">
          <mxGeometry relative="1" as="geometry" />
        </mxCell>
        <mxCell id="1257a543d1cacc4b-39" style="edgeStyle=elbowEdgeStyle;rounded=0;elbow=vertical;html=1;startSize=10;endArrow=none;endFill=0;endSize=10;jettySize=auto;orthogonalLoop=1;strokeColor=#808080;fontSize=14;entryX=0.841;entryY=0.917;entryPerimeter=0;" parent="1" source="1257a543d1cacc4b-7" target="1257a543d1cacc4b-5" edge="1">
          <mxGeometry relative="1" as="geometry">
            <mxPoint x="648" y="528" as="targetPoint" />
            <Array as="points">
              <mxPoint x="744" y="527" />
            </Array>
          </mxGeometry>
        </mxCell>
        <mxCell id="1257a543d1cacc4b-7" value="VMware&amp;nbsp;&lt;div&gt;backup&amp;nbsp;&lt;span&gt;proxy&lt;/span&gt;&lt;/div&gt;" style="shadow=0;dashed=0;html=1;strokeColor=none;fillColor=#4495D1;labelPosition=center;verticalLabelPosition=bottom;verticalAlign=top;shape=mxgraph.veeam.2d.proxy;fontSize=14;" parent="1" vertex="1">
          <mxGeometry x="890" y="530" width="46" height="46" as="geometry" />
        </mxCell>
        <mxCell id="1257a543d1cacc4b-16" style="edgeStyle=elbowEdgeStyle;rounded=0;html=1;startSize=10;endSize=10;jettySize=auto;orthogonalLoop=1;fontSize=14;endArrow=none;endFill=0;strokeColor=#808080;elbow=vertical;entryX=0.164;entryY=0.919;entryPerimeter=0;" parent="1" source="1257a543d1cacc4b-8" target="1257a543d1cacc4b-6" edge="1">
          <mxGeometry relative="1" as="geometry">
            <Array as="points">
              <mxPoint x="1150" y="527" />
            </Array>
          </mxGeometry>
        </mxCell>
        <mxCell id="1257a543d1cacc4b-8" value="VMware&amp;nbsp;&lt;div&gt;backup&amp;nbsp;&lt;span&gt;proxy&lt;/span&gt;&lt;/div&gt;" style="shadow=0;dashed=0;html=1;strokeColor=none;fillColor=#4495D1;labelPosition=center;verticalLabelPosition=bottom;verticalAlign=top;shape=mxgraph.veeam.2d.proxy;fontSize=14;" parent="1" vertex="1">
          <mxGeometry x="966.0000000000002" y="240" width="46" height="46" as="geometry" />
        </mxCell>
        <mxCell id="1257a543d1cacc4b-15" style="rounded=0;html=1;startSize=10;endSize=10;jettySize=auto;orthogonalLoop=1;fontSize=14;endArrow=none;endFill=0;strokeColor=#808080;" parent="1" source="1257a543d1cacc4b-9" target="1257a543d1cacc4b-8" edge="1">
          <mxGeometry relative="1" as="geometry" />
        </mxCell>
        <mxCell id="1257a543d1cacc4b-9" value="WAN" style="shadow=0;dashed=0;html=1;strokeColor=none;fillColor=#4495D1;labelPosition=center;verticalLabelPosition=middle;verticalAlign=middle;shape=mxgraph.veeam.2d.cloud;fontSize=14;align=center;" parent="1" vertex="1">
          <mxGeometry x="890" y="350" width="66" height="46" as="geometry" />
        </mxCell>
        <mxCell id="1257a543d1cacc4b-18" value="Transport&lt;div&gt;service&lt;/div&gt;" style="shadow=0;dashed=0;html=1;strokeColor=none;fillColor=#4495D1;labelPosition=right;verticalLabelPosition=middle;verticalAlign=middle;shape=mxgraph.veeam.2d.data_mover;fontSize=14;align=left;" parent="1" vertex="1">
          <mxGeometry x="312" y="417" width="38" height="38" as="geometry" />
        </mxCell>
        <mxCell id="1257a543d1cacc4b-19" value="Transport&lt;div&gt;service&lt;/div&gt;" style="shadow=0;dashed=0;html=1;strokeColor=none;fillColor=#4495D1;labelPosition=left;verticalLabelPosition=middle;verticalAlign=middle;shape=mxgraph.veeam.2d.data_mover;fontSize=14;align=right;" parent="1" vertex="1">
          <mxGeometry x="792" y="417" width="38" height="38" as="geometry" />
        </mxCell>
        <mxCell id="1257a543d1cacc4b-20" value="Replicated Data&amp;nbsp;" style="shadow=0;dashed=0;html=1;strokeColor=none;fillColor=#4495D1;labelPosition=right;verticalLabelPosition=middle;verticalAlign=middle;shape=mxgraph.veeam.2d.data_mover;fontSize=14;align=left;" parent="1" vertex="1">
          <mxGeometry x="810" y="720" width="38" height="38" as="geometry" />
        </mxCell>
        <mxCell id="1257a543d1cacc4b-31" style="edgeStyle=elbowEdgeStyle;rounded=0;html=1;startSize=10;endSize=10;jettySize=auto;orthogonalLoop=1;fontSize=14;endArrow=none;endFill=0;strokeColor=#808080;elbow=vertical;" parent="1" source="1257a543d1cacc4b-21" target="1257a543d1cacc4b-22" edge="1">
          <mxGeometry relative="1" as="geometry" />
        </mxCell>
        <mxCell id="1257a543d1cacc4b-21" value="" style="shadow=0;dashed=0;html=1;strokeColor=none;fillColor=#4495D1;labelPosition=center;verticalLabelPosition=bottom;verticalAlign=top;shape=mxgraph.veeam.2d.backup_repository_2;fontSize=14;" parent="1" vertex="1">
          <mxGeometry x="269" y="1281" width="58" height="50" as="geometry" />
        </mxCell>
        <mxCell id="1257a543d1cacc4b-30" style="edgeStyle=elbowEdgeStyle;rounded=0;html=1;startSize=10;endSize=10;jettySize=auto;orthogonalLoop=1;fontSize=14;endArrow=none;endFill=0;strokeColor=#808080;elbow=vertical;" parent="1" source="1257a543d1cacc4b-22" target="1257a543d1cacc4b-23" edge="1">
          <mxGeometry relative="1" as="geometry" />
        </mxCell>
        <mxCell id="1257a543d1cacc4b-22" value="Source ESX host" style="shadow=0;dashed=0;html=1;strokeColor=none;fillColor=#4495D1;labelPosition=center;verticalLabelPosition=top;verticalAlign=bottom;shape=mxgraph.veeam.2d.vmware_host;fontSize=14;align=center;" parent="1" vertex="1">
          <mxGeometry x="555" y="1304" width="124" height="120" as="geometry" />
        </mxCell>
        <mxCell id="1257a543d1cacc4b-27" style="rounded=0;html=1;startSize=10;endSize=10;jettySize=auto;orthogonalLoop=1;fontSize=14;endArrow=none;endFill=0;strokeColor=#808080;" parent="1" source="1257a543d1cacc4b-23" edge="1">
          <mxGeometry relative="1" as="geometry">
            <mxPoint x="931.3551401869158" y="1220.0000000000002" as="targetPoint" />
          </mxGeometry>
        </mxCell>
        <mxCell id="1257a543d1cacc4b-23" value="VMware&amp;nbsp;&lt;div&gt;backup&amp;nbsp;&lt;span&gt;proxy&lt;/span&gt;&lt;/div&gt;" style="shadow=0;dashed=0;html=1;strokeColor=none;fillColor=#4495D1;labelPosition=center;verticalLabelPosition=top;verticalAlign=bottom;shape=mxgraph.veeam.2d.proxy;fontSize=14;align=center;" parent="1" vertex="1">
          <mxGeometry x="822" y="1281" width="46" height="46" as="geometry" />
        </mxCell>
        <mxCell id="1257a543d1cacc4b-26" style="rounded=0;html=1;startSize=10;endSize=10;jettySize=auto;orthogonalLoop=1;fontSize=14;endArrow=none;endFill=0;strokeColor=#808080;" parent="1" source="1257a543d1cacc4b-24" edge="1">
          <mxGeometry relative="1" as="geometry">
            <mxPoint x="972.196261682243" y="1220.0000000000002" as="targetPoint" />
          </mxGeometry>
        </mxCell>
        <mxCell id="1257a543d1cacc4b-33" style="edgeStyle=elbowEdgeStyle;rounded=0;html=1;startSize=10;endSize=10;jettySize=auto;orthogonalLoop=1;fontSize=14;endArrow=none;endFill=0;strokeColor=#808080;elbow=vertical;" parent="1" source="1257a543d1cacc4b-24" target="1257a543d1cacc4b-25" edge="1">
          <mxGeometry relative="1" as="geometry" />
        </mxCell>
        <mxCell id="1257a543d1cacc4b-24" value="VMware&amp;nbsp;&lt;div&gt;backup&amp;nbsp;&lt;span&gt;proxy&lt;/span&gt;&lt;/div&gt;" style="shadow=0;dashed=0;html=1;strokeColor=none;fillColor=#4495D1;labelPosition=center;verticalLabelPosition=top;verticalAlign=bottom;shape=mxgraph.veeam.2d.proxy;fontSize=14;align=center;" parent="1" vertex="1">
          <mxGeometry x="1012.0000000000002" y="1281.0000000000002" width="46" height="46" as="geometry" />
        </mxCell>
        <mxCell id="1257a543d1cacc4b-25" value="Source ESX host" style="shadow=0;dashed=0;html=1;strokeColor=none;fillColor=#4495D1;labelPosition=center;verticalLabelPosition=top;verticalAlign=bottom;shape=mxgraph.veeam.2d.hyper_v_vmware_host;fontSize=14;align=center;" parent="1" vertex="1">
          <mxGeometry x="1241.9999999999998" y="1281" width="124" height="120" as="geometry" />
        </mxCell>
        <mxCell id="1257a543d1cacc4b-32" style="edgeStyle=orthogonalEdgeStyle;rounded=0;html=1;startSize=10;endSize=10;jettySize=auto;orthogonalLoop=1;fontSize=14;endArrow=none;endFill=0;strokeColor=#808080;" parent="1" source="1257a543d1cacc4b-28" target="1257a543d1cacc4b-21" edge="1">
          <mxGeometry relative="1" as="geometry">
            <mxPoint x="312" y="1434" as="targetPoint" />
            <Array as="points">
              <mxPoint x="469" y="1444" />
              <mxPoint x="298" y="1444" />
            </Array>
          </mxGeometry>
        </mxCell>
        <mxCell id="1257a543d1cacc4b-37" style="edgeStyle=orthogonalEdgeStyle;rounded=0;html=1;startSize=10;endSize=10;jettySize=auto;orthogonalLoop=1;fontSize=14;endArrow=none;endFill=0;strokeColor=#808080;" parent="1" source="1257a543d1cacc4b-28" target="1257a543d1cacc4b-22" edge="1">
          <mxGeometry relative="1" as="geometry">
            <Array as="points">
              <mxPoint x="469" y="1444" />
              <mxPoint x="605" y="1444" />
            </Array>
          </mxGeometry>
        </mxCell>
        <mxCell id="1257a543d1cacc4b-38" style="edgeStyle=orthogonalEdgeStyle;rounded=0;html=1;entryX=0.202;entryY=1.004;entryPerimeter=0;startSize=10;endSize=10;jettySize=auto;orthogonalLoop=1;fontSize=14;endArrow=none;endFill=0;strokeColor=#808080;" parent="1" source="1257a543d1cacc4b-28" target="1257a543d1cacc4b-23" edge="1">
          <mxGeometry relative="1" as="geometry">
            <Array as="points">
              <mxPoint x="516" y="1444" />
              <mxPoint x="845" y="1444" />
              <mxPoint x="845" y="1328" />
            </Array>
          </mxGeometry>
        </mxCell>
        <mxCell id="1257a543d1cacc4b-28" value="Veeam backup server" style="shadow=0;dashed=0;html=1;strokeColor=none;fillColor=#4495D1;labelPosition=center;verticalLabelPosition=bottom;verticalAlign=top;shape=mxgraph.veeam.2d.veeam_backup_and_replication_server;fontSize=14;" parent="1" vertex="1">
          <mxGeometry x="432" y="1554" width="74" height="72" as="geometry" />
        </mxCell>
        <mxCell id="1257a543d1cacc4b-34" style="edgeStyle=orthogonalEdgeStyle;rounded=0;html=1;startSize=10;endSize=10;jettySize=auto;orthogonalLoop=1;fontSize=14;endArrow=none;endFill=0;strokeColor=#808080;" parent="1" source="1257a543d1cacc4b-29" target="1257a543d1cacc4b-25" edge="1">
          <mxGeometry relative="1" as="geometry">
            <Array as="points">
              <mxPoint x="1449" y="1444" />
              <mxPoint x="1305" y="1444" />
            </Array>
          </mxGeometry>
        </mxCell>
        <mxCell id="1257a543d1cacc4b-35" style="edgeStyle=orthogonalEdgeStyle;rounded=0;html=1;startSize=10;endSize=10;jettySize=auto;orthogonalLoop=1;fontSize=14;endArrow=none;endFill=0;strokeColor=#808080;" parent="1" source="1257a543d1cacc4b-29" target="1257a543d1cacc4b-24" edge="1">
          <mxGeometry relative="1" as="geometry">
            <Array as="points">
              <mxPoint x="1449" y="1444" />
              <mxPoint x="1035" y="1444" />
            </Array>
          </mxGeometry>
        </mxCell>
        <mxCell id="1257a543d1cacc4b-29" value="Veeam backup server" style="shadow=0;dashed=0;html=1;strokeColor=none;fillColor=#4495D1;labelPosition=center;verticalLabelPosition=bottom;verticalAlign=top;shape=mxgraph.veeam.2d.veeam_backup_and_replication_server;fontSize=14;" parent="1" vertex="1">
          <mxGeometry x="1411.9999999999995" y="1554" width="74" height="72" as="geometry" />
        </mxCell>
        <mxCell id="1257a543d1cacc4b-40" value="Transport&lt;div&gt;service&lt;/div&gt;" style="shadow=0;dashed=0;html=1;strokeColor=none;fillColor=#4495D1;labelPosition=right;verticalLabelPosition=middle;verticalAlign=middle;shape=mxgraph.veeam.2d.data_mover;fontSize=14;align=left;" parent="1" vertex="1">
          <mxGeometry x="312" y="1354" width="38" height="38" as="geometry" />
        </mxCell>
        <mxCell id="1257a543d1cacc4b-41" value="Transport&lt;div&gt;service&lt;/div&gt;" style="shadow=0;dashed=0;html=1;strokeColor=none;fillColor=#4495D1;labelPosition=left;verticalLabelPosition=middle;verticalAlign=middle;shape=mxgraph.veeam.2d.data_mover;fontSize=14;align=right;" parent="1" vertex="1">
          <mxGeometry x="792" y="1354" width="38" height="38" as="geometry" />
        </mxCell>
        <mxCell id="1257a543d1cacc4b-42" value="Transport&lt;div&gt;service&lt;/div&gt;" style="shadow=0;dashed=0;html=1;strokeColor=none;fillColor=#4495D1;labelPosition=right;verticalLabelPosition=middle;verticalAlign=middle;shape=mxgraph.veeam.2d.data_mover;fontSize=14;align=left;" parent="1" vertex="1">
          <mxGeometry x="1052" y="1354" width="38" height="38" as="geometry" />
        </mxCell>
        <mxCell id="1257a543d1cacc4b-49" value="" style="line;strokeWidth=3;html=1;fillColor=none;gradientColor=none;fontSize=14;strokeColor=#808080;" parent="1" vertex="1">
          <mxGeometry x="580" y="700" width="562" height="10" as="geometry" />
        </mxCell>
        <mxCell id="1257a543d1cacc4b-50" value="" style="line;strokeWidth=3;html=1;fillColor=none;gradientColor=none;fontSize=14;strokeColor=#808080;" parent="1" vertex="1">
          <mxGeometry x="282" y="1440" width="1200" height="10" as="geometry" />
        </mxCell>
        <mxCell id="1257a543d1cacc4b-51" style="edgeStyle=orthogonalEdgeStyle;rounded=0;html=1;startSize=10;endSize=10;jettySize=auto;orthogonalLoop=1;fontSize=14;endArrow=none;endFill=0;strokeColor=#808080;" parent="1" source="1257a543d1cacc4b-29" target="1257a543d1cacc4b-50" edge="1">
          <mxGeometry relative="1" as="geometry">
            <mxPoint x="516.3529411764707" y="1554" as="targetPoint" />
            <mxPoint x="1449.294117647059" y="1554" as="sourcePoint" />
            <Array as="points">
              <mxPoint x="1449" y="1444" />
            </Array>
          </mxGeometry>
        </mxCell>
        <mxCell id="1257a543d1cacc4b-52" value="Title" style="text;strokeColor=none;fillColor=none;html=1;fontSize=24;fontStyle=1;verticalAlign=middle;align=center;" parent="1" vertex="1">
          <mxGeometry x="160" y="60" width="1420" height="40" as="geometry" />
        </mxCell>
        <mxCell id="Znz7ao2ePO_Y9sYvwKAR-1" value="" style="shape=image;html=1;verticalAlign=top;verticalLabelPosition=bottom;labelBackgroundColor=#ffffff;imageAspect=0;aspect=fixed;image=https://cdn3.iconfinder.com/data/icons/social-media-2169/24/social_media_social_media_logo_docker-128.png" vertex="1" parent="1">
          <mxGeometry x="1151.5" y="590" width="190" height="190" as="geometry" />
        </mxCell>
        <mxCell id="Znz7ao2ePO_Y9sYvwKAR-3" value="" style="shape=image;html=1;verticalAlign=top;verticalLabelPosition=bottom;labelBackgroundColor=#ffffff;imageAspect=0;aspect=fixed;image=https://cdn3.iconfinder.com/data/icons/social-media-2169/24/social_media_social_media_logo_docker-128.png" vertex="1" parent="1">
          <mxGeometry x="396" y="578" width="180" height="180" as="geometry" />
        </mxCell>
        <mxCell id="Znz7ao2ePO_Y9sYvwKAR-12" value="" style="shadow=0;dashed=0;html=1;strokeColor=none;fillColor=#4495D1;labelPosition=center;verticalLabelPosition=bottom;verticalAlign=top;shape=mxgraph.veeam.2d.backup_repository;fontSize=14;" vertex="1" parent="1">
          <mxGeometry x="1090" y="732" width="52" height="48" as="geometry" />
        </mxCell>
        <mxCell id="Znz7ao2ePO_Y9sYvwKAR-13" value="User" style="html=1;strokeColor=none;fillColor=#0079D6;labelPosition=center;verticalLabelPosition=middle;verticalAlign=top;align=center;fontSize=12;outlineConnect=0;spacingTop=-6;fontColor=#FFFFFF;shape=mxgraph.sitemap.user;" vertex="1" parent="1">
          <mxGeometry x="1185" y="890" width="120" height="70" as="geometry" />
        </mxCell>
        <mxCell id="Znz7ao2ePO_Y9sYvwKAR-14" value="WAN" style="shadow=0;dashed=0;html=1;strokeColor=none;fillColor=#4495D1;labelPosition=center;verticalLabelPosition=middle;verticalAlign=middle;shape=mxgraph.veeam.2d.cloud;fontSize=14;align=center;" vertex="1" parent="1">
          <mxGeometry x="797" y="620" width="66" height="46" as="geometry" />
        </mxCell>
        <mxCell id="Znz7ao2ePO_Y9sYvwKAR-15" value="" style="shape=mxgraph.cisco.misc.ios_slb;html=1;pointerEvents=1;dashed=0;fillColor=#036897;strokeColor=#ffffff;strokeWidth=2;verticalLabelPosition=bottom;verticalAlign=top;align=center;outlineConnect=0;" vertex="1" parent="1">
          <mxGeometry x="1180" y="510" width="91" height="45" as="geometry" />
        </mxCell>
        <mxCell id="Znz7ao2ePO_Y9sYvwKAR-16" value="" style="shape=mxgraph.cisco.misc.ios_slb;html=1;pointerEvents=1;dashed=0;fillColor=#036897;strokeColor=#ffffff;strokeWidth=2;verticalLabelPosition=bottom;verticalAlign=top;align=center;outlineConnect=0;" vertex="1" parent="1">
          <mxGeometry x="465" y="510" width="91" height="45" as="geometry" />
        </mxCell>
        <mxCell id="Znz7ao2ePO_Y9sYvwKAR-18" value="Orchestrator" style="shadow=0;dashed=0;html=1;strokeColor=none;fillColor=#4495D1;labelPosition=center;verticalLabelPosition=bottom;verticalAlign=top;shape=mxgraph.veeam.2d.proxy;fontSize=14;" vertex="1" parent="1">
          <mxGeometry x="1350" y="500" width="46" height="46" as="geometry" />
        </mxCell>
        <mxCell id="Znz7ao2ePO_Y9sYvwKAR-21" value="Orchestrator" style="shadow=0;dashed=0;html=1;strokeColor=none;fillColor=#4495D1;labelPosition=center;verticalLabelPosition=bottom;verticalAlign=top;shape=mxgraph.veeam.2d.proxy;fontSize=14;" vertex="1" parent="1">
          <mxGeometry x="350" y="500" width="46" height="46" as="geometry" />
        </mxCell>
        <mxCell id="Znz7ao2ePO_Y9sYvwKAR-22" value="Text" style="text;html=1;resizable=0;autosize=1;align=center;verticalAlign=middle;points=[];fillColor=none;strokeColor=none;rounded=0;" vertex="1" parent="1">
          <mxGeometry x="950" y="420" width="40" height="20" as="geometry" />
        </mxCell>
        <mxCell id="Znz7ao2ePO_Y9sYvwKAR-23" value="User" style="html=1;strokeColor=none;fillColor=#0079D6;labelPosition=center;verticalLabelPosition=middle;verticalAlign=top;align=center;fontSize=12;outlineConnect=0;spacingTop=-6;fontColor=#FFFFFF;shape=mxgraph.sitemap.user;" vertex="1" parent="1">
          <mxGeometry x="432" y="890" width="120" height="70" as="geometry" />
        </mxCell>
      </root>
    </mxGraphModel>
  </diagram>
</mxfile>
